<?xml version="1.0" encoding="UTF-8"?>
<svg id="Ebene_1" xmlns="http://www.w3.org/2000/svg" xmlns:xlink="http://www.w3.org/1999/xlink" version="1.1" viewBox="0 0 1015.46 277.69">
  <!-- Generator: Adobe Illustrator 30.6.0, SVG Export Plug-In . SVG Version: 2.1.4 Build 109)  -->
  <defs>
    <style>
      .st0 {
        fill: none;
      }

      .st1 {
        fill: #f60;
      }

      .st2 {
        clip-path: url(#clippath);
      }
    </style>
    <clipPath id="clippath">
      <rect class="st0" width="1015.45" height="277.67"/>
    </clipPath>
  </defs>
  <g class="st2">
    <g>
      <path class="st1" d="M632.75,120.29l-36.64-86.35c-6.78-15.97-18.21-27.79-36.09-29.27-16.33-1.36-32.04,6.71-40.22,20.85-4.83,8.34-6.26,17.84-3.97,27.16.95,3.88,2.02,7.49,3.75,11.21l70.17,151.11c.47-1.25.97-2.5,1.54-3.74l41.46-90.98h0Z"/>
      <path class="st1" d="M138.67,173.52c-12.5-5.68-16.57-17.2-14.77-30.46,1.19-8.79,6.69-15.65,14.91-19.03,6.18-2.54,12.66-3.89,19.51-3.82l27.6.28c10.83.11,21.29.28,31.95,1.84,5.06.74,10,1.9,14.17,4.83,11.79,8.27,16.93,23.81,16.76,37.93l-.18,14.36c-.15,11.91-.25,23.48-1.37,35.36-.69,7.27-3.9,13.62-8.33,19.24-16.3,20.69-46.46,35.77-71.73,40.88-65.42,13.22-131.26-22.1-156.72-83.57-14.83-35.79-13.89-76.74,2.72-111.67C43.06,16.89,114.91-14.42,181.34,6.43c17.49,5.49,38.63,15.26,50.47,29.91,7.82,9.69,10.41,21.99,6.88,34.01-5.3,18.05-22.31,30.47-41.24,29.94-2.63-.07-5.82-.2-8.08-1.37l-21.12-10.93c-5.96-3.08-12.14-4.98-18.71-6.42-26.25-5.78-51.64,9.25-62.48,33.18-9.77,21.54-5.09,46.71,11.39,63.56,12.34,12.62,29.38,18.91,47.09,17.14,8.3-.83,16.03-2.74,23.62-6.01,4.56-1.96,9.07-4.75,7.71-8.99-.55-1.73-2.3-3.23-4.4-3.23h-14.75c-6.63-.02-13.02-.97-19.04-3.7"/>
      <path class="st1" d="M900.73,174.43c-1.26,2.02-3.81,4.12-7.01,4.13l-14.25.04c-.38,0-.76-.02-1.12-.07-.37-.05-.72-.12-1.07-.2-.7-.18-1.36-.44-1.97-.78-1.22-.67-2.26-1.61-3.05-2.73-1.63-2.32-2.19-5.45-1.03-8.21l6.7-15.89c1.49-3.53,4.32-5.83,7.97-5.98,3.82-.16,7.15,1.94,8.7,5.58l6.63,15.59c1.21,2.85,1.25,5.74-.49,8.52M1010.76,212.86l-86.85-184.83c-3.79-8.06-10.3-14.59-18-18.7-20.53-10.97-46.35-2.82-56.49,18.66l-87.11,184.53c-3.25,6.89-4.47,14.63-4.12,21.88,1.1,22.99,20.13,39.5,42.79,38.35,20.61-1.04,30.87-14.4,39.05-32.32,1.39-3.04,4.32-5.25,7.83-5.25l78.28.02c3.88,0,6.41,2.9,7.82,5.88,3.31,7,7.06,13.42,11.94,19.29,6.38,7.67,14.79,11.61,24.65,12.32,19.3,1.4,37.12-9.99,43.1-28.47,3.4-10.51,1.78-21.45-2.88-31.36"/>
      <path class="st1" d="M422.51,158.53c-1.15,1.65-1.57,3.13-1.57,4.88l-.04,60.84c0,13.45-2.38,25.14-11.56,35.2-7.46,8.17-18.14,13.29-29.3,13.26-21.73-.05-39.32-17.1-40.93-38.51l-.57-12.02v-59.55c0-1.92-.36-3.51-1.44-5.12l-61.6-91.39c-6.72-9.98-8.18-22.73-4.55-33.9,6.52-20.03,27.29-31.35,47.76-26.63,9.71,2.24,18.6,7.57,24.69,15.66l30.04,39.89c1.76,2.33,4.12,3.59,6.81,3.67,2.8.08,5.49-1.02,7.34-3.43l29.81-38.88c4.09-5.34,9.14-9.45,14.89-12.73,18.58-10.6,41.23-4.49,53.16,12.78,6.94,10.05,8.85,22.38,5.27,34.02-1.6,5.2-3.94,9.58-7.06,14.07l-61.15,87.9h0Z"/>
      <path class="st1" d="M748.65,8.79c-20.07-9.15-43.75-.29-52.9,19.78l-85.66,187.96c-9.15,20.07-.29,43.75,19.78,52.9s43.75.29,52.9-19.78l85.66-187.96c9.15-20.07.29-43.75-19.78-52.9"/>
    </g>
  </g>
</svg>